<?xml version="1.0" standalone="no"?>
<!DOCTYPE svg PUBLIC "-//W3C//DTD SVG 20010904//EN"
 "http://www.w3.org/TR/2001/REC-SVG-20010904/DTD/svg10.dtd">
<svg version="1.0" xmlns="http://www.w3.org/2000/svg"
 width="547.000000pt" height="984.000000pt" viewBox="0 0 547.000000 984.000000"
 preserveAspectRatio="xMidYMid meet">

<g transform="translate(0.000000,984.000000) scale(0.100000,-0.100000)"
fill="#000000" stroke="none">
<path d="M9 9833 c-7 -36 -3 -111 5 -125 8 -13 7 -24 -2 -39 -17 -26 -14 -29
34 -32 29 -1 39 2 39 13 0 10 -8 14 -21 12 -18 -2 -22 4 -28 39 -4 23 -3 46 1
50 14 14 3 89 -13 89 -8 0 -15 -3 -15 -7z"/>
<path d="M56 9824 c-4 -12 -2 -15 9 -10 8 3 15 0 15 -6 0 -6 2 -9 5 -6 7 7 -5
38 -15 38 -4 0 -11 -7 -14 -16z"/>
<path d="M1483 9811 c-1 -21 4 -31 20 -39 22 -10 22 -10 -5 -17 -27 -7 -29
-12 -30 -75 -1 -3 2 -17 6 -32 5 -21 3 -28 -9 -28 -8 0 -25 -6 -38 -12 -12 -7
-23 -14 -25 -14 -9 -4 -9 -45 0 -50 7 -5 9 0 6 14 -5 19 -2 22 22 22 15 0 33
-6 39 -14 7 -8 30 -17 52 -21 42 -7 54 -33 20 -42 -13 -3 -18 -10 -14 -21 4
-10 2 -13 -5 -8 -6 3 -13 2 -16 -3 -4 -5 3 -13 15 -16 16 -6 18 -9 8 -15 -7
-5 -17 -6 -22 -3 -5 3 -37 5 -71 4 l-62 -2 1 83 0 83 -30 -3 c-20 -2 -36 3
-47 15 -14 16 -19 36 -30 118 -2 11 -7 23 -13 27 -7 5 -6 14 3 28 15 25 15 30
-2 30 -19 0 -26 -22 -26 -78 0 -56 -7 -68 -41 -77 -21 -5 -25 -11 -21 -35 5
-33 30 -42 119 -44 29 -1 54 -4 57 -7 3 -3 1 -22 -5 -42 -7 -28 -15 -37 -32
-38 -20 -1 -20 -2 -2 -6 11 -3 25 -10 30 -15 7 -7 1 -8 -18 -4 -22 5 -33 2
-47 -14 -18 -21 -25 -21 -190 -17 -133 3 -174 7 -181 18 -8 12 -10 12 -18 0
-7 -11 -25 -13 -82 -7 -41 3 -153 9 -249 12 -96 3 -180 10 -186 15 -8 7 -15 6
-19 -1 -5 -8 -20 -9 -43 -5 -20 4 -80 6 -134 6 -82 0 -99 3 -107 17 -6 9 -11
12 -11 5 0 -6 -10 -13 -23 -15 -18 -2 -23 -10 -25 -45 l-3 -43 93 -1 c51 0
149 0 218 1 162 1 206 -6 215 -34 l8 -21 4 22 c4 20 9 21 136 22 73 1 215 -3
317 -9 196 -12 202 -12 350 -28 52 -5 104 -9 115 -9 11 0 41 -3 66 -7 35 -6
49 -4 61 7 9 10 20 12 30 6 9 -5 85 -11 169 -13 305 -8 486 -17 586 -28 l102
-11 -17 -23 c-11 -15 -24 -21 -34 -18 -13 4 -18 0 -18 -15 0 -12 -4 -21 -9
-21 -4 0 -40 -32 -79 -70 -98 -99 -116 -148 -116 -324 -1 -72 3 -166 7 -208
l8 -77 -31 12 c-28 11 -33 10 -50 -13 -24 -31 -25 -59 -4 -147 11 -46 14 -88
10 -130 -6 -55 -2 -75 33 -178 43 -129 62 -157 100 -153 31 4 38 -18 40 -122
1 -41 12 -126 25 -188 23 -109 23 -113 5 -122 -10 -6 -16 -16 -13 -24 7 -19
-39 -26 -122 -20 -52 5 -74 2 -89 -9 -19 -15 -19 -16 14 -113 33 -97 55 -142
77 -156 7 -4 15 -19 18 -33 4 -14 10 -24 15 -22 12 3 154 -147 216 -229 66
-87 114 -130 154 -139 17 -4 31 -11 31 -16 0 -5 21 -9 48 -10 44 0 97 -8 165
-25 l28 -6 -22 53 c-11 30 -28 81 -36 113 -8 33 -18 68 -24 77 -9 17 -6 17 44
0 30 -11 68 -26 86 -35 35 -19 118 -36 136 -30 14 6 16 35 3 51 -6 7 -7 20 -4
29 4 9 2 22 -3 28 -13 16 -17 49 -8 64 5 6 19 12 32 12 30 0 39 14 24 38 -18
29 -7 44 57 76 32 16 66 36 75 44 16 14 15 17 -17 34 -19 10 -43 18 -54 18
-11 0 -20 4 -20 9 0 15 -105 111 -122 111 -11 0 -21 13 -27 37 -12 44 -4 53
52 53 86 0 99 38 34 97 -59 52 -64 63 -39 82 28 21 19 57 -19 77 -23 11 -29
21 -29 47 0 35 26 81 41 72 5 -4 9 -21 9 -39 0 -18 7 -41 15 -52 13 -16 16
-17 25 -4 15 20 4 170 -14 207 -31 61 -39 108 -25 146 11 31 10 47 -9 120 -22
88 -20 124 17 287 8 35 7 48 -4 59 -22 22 -42 6 -48 -39 -9 -72 -23 -70 -57 5
-17 38 -29 74 -26 82 3 8 -4 15 -19 19 -13 3 -31 14 -41 25 -16 18 -16 19 4
19 11 0 24 -4 27 -10 8 -13 45 -13 45 0 0 5 -16 16 -35 24 -19 8 -35 16 -35
18 0 2 -7 21 -14 43 -9 26 -11 47 -5 62 11 30 -9 65 -32 58 -29 -10 -31 52 -2
81 26 26 57 31 69 12 6 -9 10 -5 14 11 7 32 84 86 134 94 22 3 44 13 48 22 5
8 15 15 22 15 8 0 17 7 20 15 5 13 10 14 27 4 20 -10 21 -9 15 14 -8 33 7 42
37 22 13 -8 33 -15 43 -14 53 5 73 -5 154 -74 47 -41 91 -86 99 -100 8 -15 20
-27 27 -27 8 0 16 -12 19 -27 3 -16 14 -66 25 -113 21 -92 25 -118 39 -225 6
-47 6 -74 -1 -83 -13 -15 -5 -183 10 -222 9 -24 10 -24 17 13 4 20 11 40 16
43 5 3 9 17 9 32 0 15 6 39 14 54 30 56 39 98 25 114 -8 10 -9 18 -3 22 13 9
17 112 4 112 -5 0 -10 -9 -10 -19 0 -33 -18 -33 -34 0 -9 18 -16 39 -16 47 0
12 -3 12 -15 2 -12 -10 -16 -9 -21 3 -3 9 -1 23 4 32 6 11 5 30 -3 53 -16 45
-1 75 33 69 31 -6 29 23 -7 95 -31 63 -106 158 -124 158 -8 0 -7 -4 2 -9 9 -6
10 -11 2 -15 -6 -4 -15 -5 -20 -1 -12 7 -41 64 -41 81 0 7 -20 30 -45 51 -75
62 -67 67 103 58 81 -4 197 -9 257 -11 61 -2 256 -9 435 -15 410 -15 698 -15
713 0 8 8 7 11 -3 12 -10 0 -7 4 5 9 14 6 3 9 -40 10 -140 3 -319 11 -445 20
-74 5 -214 12 -310 15 -96 3 -209 7 -250 10 -85 5 -360 16 -495 19 -50 1 -96
6 -103 10 -6 4 -33 13 -59 21 -27 7 -58 16 -70 20 -17 6 -23 3 -23 -9 0 -23
-15 -20 -33 8 -15 23 -21 24 -94 20 -43 -1 -136 -6 -208 -9 -71 -3 -152 -11
-180 -19 -37 -9 -85 -11 -185 -5 -120 6 -467 21 -560 23 -52 1 -61 11 -61 69
1 29 -3 102 -8 162 -6 61 -10 129 -10 153 l-1 42 -147 0 -148 0 -2 -29z m23
-148 c-1 -1 -7 2 -14 6 -9 5 -11 17 -6 37 l8 29 7 -35 c4 -19 7 -36 5 -37z
m-181 -213 c-3 -5 -15 -10 -26 -10 -10 0 -19 5 -19 10 0 6 12 10 26 10 14 0
23 -4 19 -10z m2235 -414 c0 -11 -19 -15 -25 -6 -3 5 1 10 9 10 9 0 16 -2 16
-4z m-1173 -1218 c-3 -8 -6 -5 -6 6 -1 11 2 17 5 13 3 -3 4 -12 1 -19z m87
-324 c3 -8 2 -12 -4 -9 -6 3 -10 10 -10 16 0 14 7 11 14 -7z"/>
<path d="M5174 9818 c9 -12 17 -45 17 -73 1 -44 2 -46 9 -20 4 17 8 47 9 68 1
51 21 38 21 -14 0 -22 3 -38 8 -35 4 2 6 25 4 50 l-4 46 -40 0 c-38 0 -39 0
-24 -22z"/>
<path d="M306 9798 c4 -13 7 -35 6 -50 -1 -16 2 -28 8 -28 11 0 14 59 4 84
-10 25 -26 19 -18 -6z"/>
<path d="M718 9778 c-4 -8 -4 -44 -1 -81 6 -68 21 -89 43 -61 10 11 9 18 -1
31 -10 11 -10 14 -1 9 21 -13 35 4 18 23 -9 10 -24 35 -35 56 -12 25 -20 33
-23 23z"/>
<path d="M316 9663 c7 -30 21 -50 29 -41 5 5 -23 68 -31 68 -2 0 -1 -12 2 -27z"/>
<path d="M5190 9653 c0 -13 5 -23 10 -23 13 0 13 11 0 30 -8 12 -10 11 -10 -7z"/>
<path d="M158 9643 c7 -3 16 -2 19 1 4 3 -2 6 -13 5 -11 0 -14 -3 -6 -6z"/>
<path d="M1251 9556 c-14 -16 1 -31 42 -41 20 -6 27 -4 27 8 0 10 -7 13 -20
10 -25 -7 -26 5 -2 23 15 12 15 13 -9 14 -15 0 -32 -6 -38 -14z"/>
<path d="M5201 9504 c0 -11 3 -14 6 -6 3 7 2 16 -1 19 -3 4 -6 -2 -5 -13z"/>
<path d="M5190 9458 c0 -19 2 -20 10 -8 13 19 13 30 0 30 -5 0 -10 -10 -10
-22z"/>
<path d="M5178 9263 c7 -3 16 -2 19 1 4 3 -2 6 -13 5 -11 0 -14 -3 -6 -6z"/>
<path d="M5238 9263 c7 -3 16 -2 19 1 4 3 -2 6 -13 5 -11 0 -14 -3 -6 -6z"/>
<path d="M5288 9255 c23 -17 71 -17 75 0 1 6 -20 11 -48 13 -48 3 -49 2 -27
-13z"/>
<path d="M5098 9253 c7 -3 16 -2 19 1 4 3 -2 6 -13 5 -11 0 -14 -3 -6 -6z"/>
<path d="M5410 9251 c0 -10 24 -21 46 -21 8 0 14 7 14 15 0 18 -26 20 -33 3
-4 -10 -6 -10 -6 0 -1 14 -21 17 -21 3z"/>
<path d="M3695 8749 c10 -35 23 -45 18 -15 -3 15 -10 29 -15 32 -6 4 -7 -2 -3
-17z"/>
<path d="M3115 8490 c-5 -38 -3 -56 9 -75 9 -13 16 -42 16 -63 0 -31 5 -43 25
-56 14 -9 25 -22 26 -29 0 -6 13 -22 30 -35 29 -23 30 -23 79 -7 29 10 50 23
50 31 0 8 -4 14 -10 14 -5 0 -2 9 7 20 10 11 23 20 30 20 7 0 28 -9 48 -20 62
-35 74 -21 24 28 -17 16 -44 32 -60 36 -16 3 -29 11 -29 17 0 6 9 9 19 6 12
-3 22 1 25 9 3 8 20 14 41 14 44 0 45 14 3 37 -67 35 -98 43 -235 60 -39 4
-53 10 -56 24 -3 11 -12 19 -20 19 -11 0 -17 -15 -22 -50z"/>
<path d="M3660 8084 c0 -22 -7 -49 -15 -60 -16 -21 -19 -34 -7 -34 18 0 41 57
35 91 -7 48 -13 49 -13 3z"/>
<path d="M0 6306 l0 -1718 31 6 c17 3 68 6 113 6 51 0 89 5 100 13 9 7 23 41
31 77 23 105 103 478 120 563 45 218 161 601 226 746 16 35 29 73 29 84 0 11
45 68 108 135 59 63 119 128 134 144 15 16 48 58 73 93 52 74 190 183 364 290
9 6 41 31 71 56 141 118 362 254 492 303 39 14 48 22 53 49 9 46 43 136 67
179 32 57 22 67 -64 63 -40 -1 -87 -6 -104 -10 -39 -9 -40 -4 -50 161 l-7 122
-45 6 c-25 3 -69 6 -98 6 -29 0 -56 5 -59 10 -3 6 -1 10 4 10 6 0 11 11 11 25
0 18 4 23 15 19 8 -4 15 -1 15 4 0 14 44 62 57 62 6 0 40 16 76 35 36 19 75
35 87 35 12 0 40 11 63 23 23 13 70 32 105 43 34 10 62 21 62 24 0 3 -57 5
-128 5 -70 0 -167 4 -217 8 -104 10 -104 10 -170 9 -178 -2 -670 7 -720 13
-60 8 -396 8 -530 0 -38 -2 -76 0 -85 5 -8 4 -63 10 -123 12 l-107 3 0 -1719z
m1531 1410 c-8 -10 -9 -16 -1 -19 7 -4 7 -5 0 -4 -7 2 -11 6 -11 10 1 4 1 17
1 29 0 17 3 19 12 10 8 -8 8 -15 -1 -26z"/>
<path d="M3240 7958 c0 -25 23 -64 64 -113 37 -43 32 -13 -9 61 -40 71 -55 86
-55 52z"/>
<path d="M3154 7946 c-15 -12 -17 -17 -6 -28 15 -15 45 0 50 26 4 20 -18 21
-44 2z"/>
<path d="M3890 7923 c-14 -3 -29 -9 -34 -14 -6 -5 -25 -9 -43 -9 -21 0 -33 -5
-33 -13 0 -8 -8 -14 -17 -14 -70 1 -81 -3 -93 -33 -7 -17 -28 -44 -47 -59 -31
-26 -35 -36 -43 -98 -13 -99 -89 -300 -136 -356 -13 -16 -24 -35 -24 -44 0 -8
46 -63 102 -123 78 -83 109 -110 134 -115 58 -10 186 -82 274 -152 47 -38 109
-84 138 -102 l53 -34 52 26 c265 130 613 299 662 322 33 15 129 61 213 101 84
41 196 94 250 119 53 25 113 54 132 65 l35 19 3 245 c2 172 -1 246 -9 246 -14
0 -39 -26 -32 -34 4 -3 2 -6 -3 -6 -5 0 -9 -20 -9 -45 0 -25 3 -45 8 -45 4 0
7 -9 7 -19 0 -14 -5 -18 -19 -14 -16 4 -21 -2 -27 -32 -4 -21 -2 -47 5 -61 15
-34 15 -35 -16 -28 -34 8 -54 24 -31 24 9 0 19 4 22 9 10 15 -5 70 -18 65 -21
-7 -39 14 -39 45 0 18 -6 31 -13 31 -7 0 -15 9 -19 19 -4 12 -12 18 -21 14 -7
-3 -14 -1 -14 5 0 6 6 13 13 15 10 4 10 6 0 6 -7 1 -13 7 -13 15 0 9 -8 13
-22 10 -13 -2 -17 -2 -10 2 6 3 12 10 12 16 0 10 -77 6 -151 -7 -23 -4 -39 -3
-43 4 -4 6 -22 11 -39 10 -18 0 -26 -3 -19 -6 21 -8 13 -23 -13 -23 -24 0 -25
-2 -18 -42 3 -24 13 -48 22 -54 13 -10 12 -12 -6 -18 -11 -4 -27 -4 -35 -1 -8
3 -23 -3 -33 -15 -21 -24 -35 -26 -35 -5 0 8 -5 15 -10 15 -7 0 -7 6 -1 18 19
36 -6 109 -40 116 -8 2 -21 5 -29 8 -78 27 -159 35 -177 17 -7 -7 -20 -8 -30
-4 -10 4 -34 8 -53 10 -19 1 -65 6 -102 10 -49 6 -72 4 -82 -4 -8 -7 -23 -10
-33 -7 -24 7 -371 15 -403 9z m-165 -263 c-3 -5 -15 -10 -26 -10 -10 0 -19 5
-19 10 0 6 12 10 26 10 14 0 23 -4 19 -10z m1585 -4 c0 -3 -4 -8 -10 -11 -5
-3 -10 -1 -10 4 0 6 5 11 10 11 6 0 10 -2 10 -4z m-995 -16 c4 -6 -5 -10 -20
-10 -15 0 -24 4 -20 10 3 6 12 10 20 10 8 0 17 -4 20 -10z m718 2 c40 -4 13
-17 -38 -19 -49 -1 -64 4 -51 18 4 4 48 4 89 1z"/>
<path d="M5300 7891 c0 -11 26 -22 34 -14 3 3 3 10 0 14 -7 12 -34 11 -34 0z"/>
<path d="M4895 7830 c-3 -5 -1 -10 4 -10 6 0 11 5 11 10 0 6 -2 10 -4 10 -3 0
-8 -4 -11 -10z"/>
<path d="M1646 7752 c-2 -4 -1 -14 5 -22 7 -12 9 -10 9 8 0 23 -5 28 -14 14z"/>
<path d="M3357 7668 c-3 -35 -2 -81 2 -103 6 -36 8 -38 18 -20 12 20 6 163 -7
178 -4 4 -10 -20 -13 -55z"/>
<path d="M3070 7715 c0 -16 44 -45 69 -45 40 0 46 14 16 34 -22 15 -85 23 -85
11z"/>
<path d="M3255 7690 c-10 -11 -13 -20 -7 -20 6 0 18 -7 27 -16 20 -21 38 -6
33 27 -4 31 -29 35 -53 9z"/>
<path d="M5320 7313 c-75 -38 -196 -97 -270 -132 -155 -74 -465 -224 -722
-348 -98 -47 -175 -90 -172 -95 3 -5 33 -21 67 -37 77 -35 142 -93 232 -207
38 -50 111 -125 165 -170 84 -70 249 -254 250 -277 0 -5 8 -21 19 -35 10 -15
29 -67 41 -115 13 -49 28 -91 34 -93 6 -1 122 -5 259 -7 l247 -3 0 793 c0 436
-3 793 -8 793 -4 0 -68 -30 -142 -67z"/>
<path d="M3424 7078 c21 -148 20 -164 -16 -241 -56 -117 -60 -129 -50 -173 9
-41 5 -101 -8 -119 -4 -5 -19 -48 -34 -95 -15 -47 -31 -92 -36 -102 -15 -27
-40 -134 -40 -170 0 -19 -9 -61 -20 -93 -17 -48 -18 -62 -8 -76 7 -9 35 -50
63 -91 27 -40 75 -108 107 -152 31 -43 62 -94 68 -112 7 -19 15 -32 20 -29 21
13 100 252 164 495 78 297 87 339 93 440 3 66 1 121 -6 147 -14 50 -99 180
-183 277 -33 38 -70 85 -82 103 -29 44 -39 41 -32 -9z"/>
<path d="M1906 7036 c-3 -13 -2 -45 3 -70 5 -26 5 -49 0 -52 -5 -3 -9 5 -10
18 l0 23 -11 -22 c-9 -19 -6 -29 18 -63 39 -56 42 -61 55 -95 l12 -30 7 25 c9
33 2 58 -19 63 -14 4 -14 5 2 6 24 1 22 30 -8 113 -14 38 -25 78 -25 89 0 27
-17 24 -24 -5z"/>
<path d="M3887 6688 c13 -40 33 -111 44 -158 30 -130 41 -170 48 -170 3 0 6
-21 7 -47 1 -84 37 -335 45 -321 6 9 9 4 9 -14 0 -16 4 -28 9 -28 5 0 11 -23
15 -51 4 -29 20 -71 37 -100 32 -51 56 -66 43 -26 -4 12 -7 55 -6 95 0 39 -3
72 -7 72 -5 0 -8 18 -7 39 0 24 4 35 9 28 4 -7 5 4 1 23 -3 19 -10 37 -15 38
-5 2 -6 8 -3 13 3 6 1 15 -4 22 -6 7 -15 35 -20 62 -18 98 -104 410 -118 432
-8 12 -14 29 -14 38 0 8 -9 20 -20 27 -11 7 -20 21 -20 31 0 14 -44 67 -55 67
-2 0 8 -33 22 -72z"/>
<path d="M1991 6694 c0 -11 3 -14 6 -6 3 7 2 16 -1 19 -3 4 -6 -2 -5 -13z"/>
<path d="M1681 6085 c-1 -44 -4 -119 -7 -167 -4 -48 -3 -96 1 -105 15 -35 21
48 15 202 -5 102 -7 124 -9 70z"/>
<path d="M1707 6011 c-4 -17 -3 -21 5 -13 5 5 8 16 6 23 -3 8 -7 3 -11 -10z"/>
<path d="M950 5950 c0 -5 6 -10 14 -10 7 0 19 -7 26 -15 7 -8 17 -12 23 -8 6
4 1 13 -12 25 -25 20 -51 24 -51 8z"/>
<path d="M1040 5910 c0 -5 7 -10 16 -10 8 0 12 5 9 10 -3 6 -10 10 -16 10 -5
0 -9 -4 -9 -10z"/>
<path d="M1084 5883 c-6 -10 -9 -24 -6 -31 3 -10 8 -10 22 3 15 13 23 14 39 5
28 -15 27 4 -1 24 -29 20 -41 20 -54 -1z"/>
<path d="M1830 5778 c0 -15 5 -30 11 -34 16 -10 -2 -260 -21 -293 -7 -11 -9
-1 -10 36 0 89 -29 191 -50 178 -5 -3 -14 10 -20 28 l-12 32 -10 -40 c-10 -43
-4 -121 11 -139 11 -14 19 -106 9 -106 -4 0 -10 -11 -14 -25 -3 -13 -15 -27
-25 -30 -15 -5 -19 -16 -19 -47 0 -23 -7 -49 -15 -58 -19 -21 -46 -148 -32
-153 6 -2 5 -12 -3 -27 -9 -17 -15 -21 -18 -11 -2 7 2 18 9 23 11 8 11 9 -2 5
-9 -3 -23 0 -30 6 -10 10 -10 8 0 -6 8 -9 11 -20 7 -24 -13 -14 -28 17 -42 87
-7 40 -20 82 -27 94 -8 12 -17 33 -21 49 -3 15 -10 27 -15 27 -5 0 -12 13 -16
30 -4 16 -11 32 -16 35 -5 4 -9 15 -9 25 0 10 -4 21 -9 24 -9 6 4 -78 15 -95
3 -6 14 -43 24 -82 10 -40 37 -144 60 -232 41 -159 42 -161 45 -365 4 -331 -4
-393 -75 -520 -76 -138 -75 -135 -62 -198 13 -62 14 -171 3 -211 -10 -37 -75
-67 -154 -71 -4 0 -2 -8 4 -18 8 -13 9 -35 2 -74 -7 -43 -6 -62 4 -81 8 -16
10 -34 5 -48 -6 -16 5 -114 17 -156 1 -2 1 -9 1 -15 0 -7 6 -2 13 12 11 22 19
25 67 25 59 0 59 -1 74 -75 3 -14 19 -41 36 -60 16 -19 30 -38 30 -42 0 -5 7
-8 15 -8 12 0 13 -4 4 -19 -7 -10 -9 -26 -5 -36 6 -17 8 -16 30 4 15 15 26 19
31 12 3 -6 14 -11 24 -11 10 0 50 -16 90 -35 39 -19 77 -35 84 -35 6 0 41 -9
77 -20 36 -11 94 -23 129 -26 75 -6 94 -14 139 -60 26 -27 38 -32 61 -28 17 4
43 0 62 -9 95 -44 443 -111 399 -77 -12 9 1 10 54 5 38 -3 77 -10 86 -15 9 -5
65 -12 124 -16 77 -5 109 -11 113 -21 4 -10 18 -12 56 -7 l50 7 -8 -29 c-8
-28 -13 -68 -14 -128 -1 -28 -2 -28 -43 -23 -23 3 -37 3 -31 -1 16 -10 7 -65
-15 -82 -10 -9 -17 -21 -14 -28 2 -6 0 -12 -6 -12 -5 0 -17 -17 -28 -37 -10
-20 -32 -50 -49 -66 -16 -16 -30 -33 -30 -38 0 -6 -5 -13 -11 -17 -6 -4 -13
-15 -17 -25 -4 -10 -11 -16 -16 -13 -5 4 -19 -7 -30 -23 -23 -32 -20 -88 5
-98 8 -3 14 -11 14 -17 0 -22 25 -66 38 -66 9 0 10 -5 2 -19 -5 -11 -6 -22 -2
-25 5 -3 14 -38 21 -78 7 -40 15 -80 18 -88 3 -8 7 -27 8 -42 1 -15 12 -46 23
-70 11 -24 22 -60 25 -82 6 -37 44 -106 60 -106 4 0 7 12 7 27 0 14 2 24 4 22
2 -2 9 -76 15 -164 6 -88 13 -180 16 -205 l5 -45 -20 55 c-11 30 -18 62 -17
70 1 9 -6 15 -18 15 -14 0 -21 -8 -23 -25 -2 -14 -10 -30 -18 -36 -9 -7 -13
-22 -10 -39 4 -22 3 -25 -9 -15 -12 10 -16 9 -21 -5 -4 -9 -2 -21 4 -27 6 -6
8 -17 5 -25 -5 -13 7 -42 80 -193 12 -25 26 -43 31 -42 5 2 14 -4 19 -14 10
-17 11 -17 18 1 7 18 8 17 9 -5 2 -24 3 -23 10 5 l8 30 1 -30 c0 -16 10 -65
20 -110 11 -44 27 -127 36 -185 10 -58 21 -125 26 -150 15 -74 30 -222 25
-237 -10 -24 -23 -14 -19 14 3 27 3 27 -14 -4 -12 -23 -24 -33 -41 -33 -15 0
-22 -5 -19 -12 2 -7 14 -12 26 -11 11 2 21 -2 21 -7 0 -6 -7 -10 -15 -10 -19
0 -19 -7 -1 -26 19 -18 26 -18 26 1 0 8 7 15 16 15 25 0 10 -24 -26 -41 l-33
-16 28 -6 c39 -7 57 16 50 66 -3 22 -1 37 5 37 5 0 11 -13 11 -30 2 -45 3 -48
16 -61 17 -17 181 -8 193 11 5 8 10 41 10 73 0 31 4 57 8 57 4 0 6 33 4 73
-11 192 -13 369 -3 363 5 -4 12 -2 16 4 11 18 35 10 63 -21 23 -26 36 -32 70
-32 23 0 42 -4 42 -8 0 -5 9 -9 20 -9 23 0 27 28 5 36 -8 4 -15 14 -15 24 0
11 -13 34 -30 52 -16 18 -30 40 -30 50 0 9 -4 20 -10 23 -5 3 -10 13 -10 20 0
8 -11 39 -25 69 -16 36 -23 64 -19 83 4 19 0 34 -14 48 -10 11 -17 26 -14 33
2 7 -2 21 -9 30 -29 35 -40 64 -33 85 3 12 3 18 -2 14 -5 -5 -11 -32 -14 -60
l-6 -52 -7 60 c-4 33 -14 98 -22 145 -8 47 -20 121 -26 165 -5 44 -23 145 -39
225 -30 157 -70 396 -70 420 1 12 3 11 14 -3 9 -12 16 -14 21 -7 3 5 11 8 16
5 18 -12 9 19 -13 42 -16 17 -19 26 -11 34 18 18 43 2 43 -26 0 -17 8 -29 25
-37 14 -6 25 -19 25 -30 0 -10 5 -18 10 -18 6 0 10 -9 10 -20 0 -14 7 -20 24
-20 20 0 23 4 20 30 -2 17 0 30 5 30 12 0 7 69 -6 100 -36 81 -87 245 -98 317
-6 39 -5 42 32 67 21 14 41 26 46 26 5 0 27 13 50 28 32 22 63 32 134 42 50 7
98 10 106 7 22 -8 87 -110 87 -136 0 -11 6 -21 14 -21 8 0 18 -22 25 -60 7
-33 17 -62 23 -66 7 -4 6 -9 -3 -15 -11 -6 -11 -12 0 -32 7 -13 14 -48 16 -78
7 -133 18 -190 37 -200 11 -6 22 -8 25 -5 9 8 64 -74 57 -85 -3 -5 -1 -15 4
-22 13 -15 26 -113 52 -376 6 -57 17 -118 25 -134 8 -17 15 -36 15 -44 0 -7 4
-13 9 -13 5 0 9 -24 9 -52 1 -29 6 -54 11 -56 6 -2 11 -12 11 -22 0 -10 6 -20
13 -23 9 -3 9 -9 0 -25 -11 -18 -9 -25 11 -45 13 -13 26 -41 30 -66 8 -53 45
-141 58 -141 6 0 7 -7 4 -16 -3 -9 0 -28 8 -42 28 -53 67 -199 68 -252 0 -30
5 -60 10 -67 5 -6 11 -28 13 -48 2 -21 8 -42 14 -48 6 -6 11 -21 11 -34 0 -12
5 -34 12 -48 11 -24 15 -25 84 -23 62 1 73 4 78 21 3 14 10 17 25 12 12 -4 21
-2 21 4 0 6 10 10 22 8 16 -1 26 6 37 28 8 17 22 37 33 46 25 22 23 37 -6 45
-25 6 -28 12 -66 129 -12 39 -24 77 -28 85 -9 24 -42 141 -51 180 -5 19 -15
51 -24 70 -8 19 -20 71 -27 114 -11 71 -10 81 4 92 14 10 15 13 1 24 -8 7 -15
9 -16 4 -2 -15 -17 40 -18 65 -1 20 1 22 14 11 9 -7 19 -9 23 -5 4 4 1 10 -5
12 -23 8 -15 35 7 28 11 -4 20 -2 20 4 0 6 -5 11 -11 11 -5 0 -7 5 -4 11 4 5
-1 26 -10 45 -10 21 -14 46 -11 60 7 27 -8 33 -22 9 -6 -11 -12 3 -21 48 -8
41 -19 69 -32 78 -10 7 -19 20 -18 29 0 10 2 11 6 3 5 -15 33 -18 33 -4 0 5
-7 14 -15 21 -8 7 -15 19 -15 27 0 10 -6 13 -17 9 -17 -6 -17 -5 0 8 13 10 15
21 11 45 -6 29 -24 44 -24 19 0 -6 -3 -8 -6 -5 -4 4 0 17 8 29 19 30 29 68 17
68 -5 0 -9 -8 -9 -17 0 -9 -3 -13 -6 -10 -4 4 -8 40 -9 80 -3 69 -2 74 16 70
13 -4 19 0 19 10 0 9 -8 18 -17 20 -14 4 -12 5 5 6 25 1 29 23 7 41 -11 9 -13
26 -10 66 4 50 3 54 -16 54 -18 0 -19 2 -9 15 9 11 9 19 2 28 -6 7 -9 23 -5
35 4 16 1 22 -12 22 -13 0 -16 6 -11 24 3 14 2 27 -4 31 -5 3 -7 12 -4 19 6
17 -25 30 -40 17 -6 -6 -17 -6 -24 -2 -18 11 10 33 32 25 10 -4 16 -1 16 7 0
23 -14 36 -32 33 -12 -1 -18 5 -19 19 0 12 -3 17 -5 10 -3 -7 -11 -10 -18 -7
-10 4 -12 -2 -9 -20 5 -26 -15 -38 -21 -13 -23 94 -65 186 -197 435 -10 18
-14 42 -11 55 6 22 6 22 13 -3 4 -15 7 -18 8 -8 1 9 10 20 21 23 11 4 33 18
48 31 15 14 35 33 45 42 22 20 7 28 -23 12 -11 -6 -25 -8 -30 -5 -6 3 -7 -1
-4 -9 4 -11 -2 -19 -17 -25 -32 -12 -33 -8 -13 31 17 34 140 158 156 158 14 0
54 -42 70 -75 9 -16 33 -65 54 -108 22 -43 47 -83 57 -88 9 -5 17 -18 17 -29
0 -10 5 -22 11 -25 12 -8 7 32 -18 135 -19 82 -42 126 -87 168 -20 19 -36 40
-36 47 0 7 -6 15 -12 18 -9 3 -8 10 6 26 11 12 26 19 33 17 7 -3 15 -1 18 4
16 25 95 -10 95 -42 0 -4 5 -8 11 -8 20 0 39 -28 78 -118 46 -106 70 -209 79
-336 8 -100 6 -129 -9 -121 -5 4 -9 -2 -10 -12 -2 -44 -1 -178 6 -433 5 -214
9 -277 20 -282 9 -6 11 -20 8 -47 -3 -21 0 -48 6 -60 8 -14 8 -21 1 -21 -5 0
-10 -7 -10 -15 0 -8 5 -15 10 -15 16 0 12 -27 -5 -34 -23 -8 -19 -39 4 -31 12
3 21 0 25 -10 5 -14 1 -74 -10 -123 -6 -31 4 -46 22 -31 11 9 15 7 21 -7 3
-10 2 -19 -4 -21 -6 -2 -7 -19 -3 -44 6 -30 4 -41 -8 -48 -17 -10 -8 -31 14
-31 19 0 18 -17 -3 -29 -13 -7 -14 -13 -6 -23 15 -19 24 -86 11 -94 -5 -4 -8
-19 -6 -35 3 -16 1 -29 -4 -29 -4 0 -8 -4 -8 -10 0 -5 7 -7 15 -4 8 4 15 1 15
-5 0 -6 -4 -11 -10 -11 -5 0 -10 -12 -9 -27 l1 -28 7 25 c7 24 8 24 13 -9 3
-18 -1 -50 -8 -70 -15 -43 -17 -71 -5 -71 5 0 8 8 7 17 0 10 7 19 18 21 16 3
18 0 12 -21 -3 -14 -2 -28 2 -31 4 -2 9 -22 10 -42 2 -21 8 -44 14 -51 8 -10
7 -13 -5 -13 -8 0 -17 6 -20 13 -9 24 -19 -2 -12 -33 5 -21 12 -30 23 -28 10
2 23 -10 33 -32 14 -29 23 -36 54 -40 47 -6 64 -29 47 -62 -8 -16 -9 -33 -3
-54 5 -20 5 -40 -3 -57 -13 -31 -113 -137 -130 -137 -11 0 -12 -267 0 -337 l5
-33 344 0 345 0 0 375 c0 325 -2 376 -15 381 -8 4 -15 10 -15 15 0 5 7 9 15 9
12 0 15 17 15 90 0 65 -3 90 -12 90 -9 0 -8 4 2 11 11 8 6 9 -23 5 -32 -4 -38
-2 -35 12 3 12 12 16 36 14 28 -2 32 1 32 23 0 14 -7 28 -15 31 -8 4 -15 15
-15 25 0 21 16 26 22 8 2 -6 4 18 4 54 0 47 -3 64 -12 60 -6 -2 -15 0 -18 5
-3 6 -15 8 -26 5 -10 -3 -26 2 -35 11 -9 8 -22 13 -30 10 -9 -4 -15 0 -15 8 0
21 29 58 46 58 8 0 14 6 14 13 0 16 43 43 47 30 2 -6 10 -19 18 -29 13 -17 14
62 15 608 0 584 -2 628 -18 637 -16 10 -16 10 1 11 16 0 17 28 17 453 0 313
-3 456 -11 464 -8 8 -8 13 0 17 7 5 11 49 11 117 0 90 -3 109 -15 109 -8 0
-15 5 -15 10 0 6 7 10 15 10 13 0 15 17 14 105 -1 91 -3 105 -18 105 -9 0 -22
-5 -29 -12 -10 -9 -16 -9 -28 4 -14 14 -13 15 12 10 24 -4 26 -2 21 17 -4 17
-1 21 19 21 13 0 24 4 24 10 0 5 -21 7 -50 3 -32 -4 -50 -2 -50 5 0 5 7 13 16
16 8 3 13 10 9 15 -3 6 -12 8 -20 4 -8 -3 -15 0 -15 6 0 6 -7 8 -15 5 -8 -4
-15 -1 -15 5 0 6 6 11 14 11 9 0 12 8 8 28 -3 15 -8 29 -11 32 -4 3 -12 18
-20 35 -12 28 -14 29 -26 11 -8 -10 -11 -24 -8 -32 3 -10 -2 -14 -20 -14 -23
0 -25 -4 -29 -62 -3 -40 -1 -66 6 -71 7 -6 6 -7 -4 -4 -8 2 -19 -2 -25 -9 -5
-7 -32 -15 -60 -18 -27 -2 -52 -5 -55 -5 -3 -1 2 -6 10 -11 11 -7 11 -10 2
-10 -7 0 -23 9 -34 20 l-22 20 22 15 c30 22 57 122 30 112 -7 -2 -12 -11 -10
-21 2 -9 -1 -16 -7 -16 -12 0 -25 56 -16 70 3 5 -1 10 -9 10 -10 0 -16 -9 -16
-23 0 -25 -34 -35 -57 -16 -6 6 -17 8 -23 4 -6 -4 -22 3 -35 15 -20 19 -27 21
-40 10 -11 -9 -12 -16 -5 -25 8 -9 5 -14 -10 -18 -11 -3 -20 -13 -20 -24 0
-10 -9 -33 -20 -51 -11 -18 -20 -43 -20 -57 0 -26 -16 -42 -23 -23 -7 19 -42
-5 -42 -28 0 -18 -82 -71 -93 -60 -2 3 9 22 25 43 16 21 35 50 42 66 8 15 20
27 26 27 7 0 15 13 18 30 4 16 16 39 27 50 11 11 20 24 20 29 0 5 7 11 15 15
22 8 6 36 -21 36 -17 0 -24 6 -24 19 0 14 5 18 20 14 13 -4 20 0 20 10 0 18
-32 28 -51 16 -8 -5 -24 -9 -36 -9 -13 0 -23 -4 -23 -10 0 -5 6 -10 13 -10 8
0 22 -10 33 -21 19 -22 19 -22 -5 -14 -13 4 -31 8 -40 10 -9 1 -16 7 -15 13 1
7 2 22 3 33 1 16 6 20 21 16 11 -3 29 3 41 14 26 22 31 23 47 7 24 -24 12 10
-14 37 -23 25 -24 29 -10 37 15 8 14 12 -9 29 -29 24 -31 36 -9 60 19 21 10
89 -9 70 -13 -13 -44 -14 -52 -2 -3 6 4 19 16 30 25 23 19 51 -10 51 -11 0
-21 9 -24 22 -8 30 -22 14 -22 -25 -1 -18 -4 -42 -9 -55 -6 -19 -3 -23 23 -28
17 -4 31 -10 31 -15 0 -5 7 -9 15 -9 8 0 15 -6 15 -13 0 -18 -70 -9 -77 9 -3
8 -9 11 -14 8 -5 -3 -9 1 -9 8 0 8 -5 6 -11 -4 -5 -10 -21 -18 -34 -18 -24 0
-32 10 -19 23 13 13 10 103 -4 138 -11 28 -19 35 -33 32 -11 -3 -26 0 -34 7
-12 10 -12 16 2 46 9 19 22 34 29 34 6 0 14 14 16 31 4 28 3 30 -19 24 -13 -3
-23 -1 -23 5 0 6 4 9 8 6 4 -2 14 0 22 5 12 8 12 12 3 16 -7 2 -13 11 -13 18
0 7 -14 18 -31 24 -40 14 -39 14 -39 -1 0 -7 -11 -23 -25 -36 -13 -13 -22 -29
-19 -37 3 -7 -4 -18 -15 -25 -12 -6 -21 -7 -21 -3 0 4 -13 -20 -29 -53 -16
-34 -34 -65 -40 -68 -6 -4 -11 -16 -11 -26 0 -10 -9 -25 -20 -33 -19 -13 -19
-18 -8 -43 7 -16 22 -42 34 -59 12 -16 33 -53 48 -81 37 -74 116 -315 116
-353 0 -33 13 -66 35 -87 30 -31 73 -114 85 -166 11 -49 11 -62 -4 -99 -22
-54 -125 -187 -171 -219 -20 -14 -57 -42 -83 -63 -41 -33 -95 -57 -128 -57 -6
0 -38 -13 -72 -30 -65 -31 -94 -39 -237 -65 -123 -23 -431 -100 -477 -119 -35
-15 -38 -15 -38 0 0 23 -24 11 -28 -14 -2 -12 -8 -22 -13 -22 -19 0 -49 21
-49 34 0 47 -127 62 -248 31 -31 -8 -80 -15 -108 -15 -44 0 -52 3 -50 18 1 9
12 21 24 27 12 5 22 13 22 17 0 5 6 8 13 8 6 0 22 8 34 18 22 16 20 17 -72 17
-59 0 -98 4 -106 12 -9 9 -21 8 -52 -4 -31 -13 -44 -14 -58 -5 -10 7 -26 9
-35 5 -9 -3 -20 0 -24 7 -7 11 -11 11 -24 1 -13 -11 -19 -11 -31 -1 -11 9 -15
9 -15 1 0 -25 -108 15 -112 42 -3 17 -4 17 -25 -2 -12 -12 -34 -21 -49 -21
-24 0 -26 3 -20 30 10 54 -50 95 -74 51 -8 -15 -7 -20 5 -23 10 -2 12 -8 6
-17 -16 -25 -141 15 -209 66 -61 45 -72 49 -89 32 -15 -15 -149 13 -219 45
-50 23 -156 99 -162 117 -5 12 15 11 23 -1 10 -16 25 -11 25 8 0 10 -17 37
-38 60 -80 87 -76 79 -40 77 18 0 43 -6 55 -13 12 -7 29 -12 38 -12 9 0 14 -4
10 -9 -3 -5 8 -16 24 -24 24 -12 31 -12 35 -2 4 12 -52 53 -118 85 -50 25 -92
75 -105 123 -13 54 -15 117 -3 117 9 0 12 11 15 60 1 20 7 30 18 30 9 0 22 6
29 14 6 8 18 12 26 9 8 -3 14 -1 14 5 0 5 16 27 35 48 29 31 35 46 35 80 0 24
-4 45 -9 49 -6 3 -9 15 -8 26 2 32 47 21 66 -17 8 -16 32 -41 53 -54 21 -13
38 -29 38 -36 0 -6 7 -15 16 -18 8 -3 13 -10 10 -15 -8 -12 52 -56 87 -65 25
-6 27 -4 27 24 0 20 -5 30 -16 30 -8 0 -12 4 -9 10 3 5 -6 26 -21 45 -14 19
-22 35 -18 35 5 0 -4 8 -21 18 -16 11 -36 26 -44 35 -12 15 -11 17 8 17 27 0
27 17 1 25 -24 8 -25 14 -5 41 12 19 12 28 -3 75 -9 30 -34 88 -56 129 -64
122 -56 147 44 136 28 -3 50 -2 50 3 0 6 9 13 20 16 22 7 28 27 8 22 -7 -1
-11 5 -9 13 3 8 5 27 4 42 0 15 3 26 6 23 4 -2 12 5 19 15 9 15 8 19 -5 24
-14 6 -14 8 2 26 9 10 15 23 12 28 -6 8 14 76 25 88 13 12 -15 52 -47 67 -23
11 -36 12 -43 5 -8 -8 -16 -8 -27 2 -12 10 -18 10 -30 0 -12 -10 -15 -9 -15 6
0 18 15 92 39 189 5 22 12 72 14 110 4 67 20 201 33 274 4 28 3 33 -10 28 -11
-5 -16 0 -16 13 0 11 -5 20 -11 20 -6 0 -9 6 -6 13 3 7 -1 21 -9 32 -13 18
-14 17 -14 -7z m-234 -706 c6 -4 14 -16 18 -28 5 -16 2 -21 -11 -21 -21 0 -33
14 -33 40 0 18 8 21 26 9z m3024 -666 c0 -11 -19 -15 -25 -6 -3 5 1 10 9 10 9
0 16 -2 16 -4z m140 -96 c0 -5 -4 -10 -10 -10 -5 0 -10 5 -10 10 0 6 5 10 10
10 6 0 10 -4 10 -10z m-25 -160 c3 -5 1 -10 -4 -10 -6 0 -11 5 -11 10 0 6 2
10 4 10 3 0 8 -4 11 -10z m529 -35 c-4 -8 -8 -15 -10 -15 -2 0 -4 7 -4 15 0 8
4 15 10 15 5 0 7 -7 4 -15z m-248 -132 c-10 -10 -19 5 -10 18 6 11 8 11 12 0
2 -7 1 -15 -2 -18z m-6 -22 c0 -14 -18 -23 -30 -16 -6 4 -8 11 -5 16 8 12 35
12 35 0z m380 -41 c0 -14 -33 -21 -44 -10 -8 8 -7 13 3 19 15 10 41 4 41 -9z
m-520 -10 c0 -5 -2 -10 -4 -10 -3 0 -8 5 -11 10 -3 6 -1 10 4 10 6 0 11 -4 11
-10z m500 -35 c0 -8 -4 -15 -10 -15 -5 0 -7 7 -4 15 4 8 8 15 10 15 2 0 4 -7
4 -15z m60 -1 c0 -17 -22 -14 -28 4 -2 7 3 12 12 12 9 0 16 -7 16 -16z m25
-25 c-10 -15 -25 -10 -19 6 4 8 10 12 15 9 5 -3 7 -10 4 -15z m-778 -15 c-3
-3 -12 -4 -19 -1 -8 3 -5 6 6 6 11 1 17 -2 13 -5z m526 -104 c-3 -12 -8 -19
-11 -16 -5 6 5 36 12 36 2 0 2 -9 -1 -20z m-781 -457 c-2 -7 -8 -13 -14 -13
-5 0 -6 5 -3 10 3 6 1 10 -4 10 -6 0 -11 10 -11 22 0 21 0 21 19 2 10 -10 16
-25 13 -31z m-24 -971 c2 -7 -8 -11 -27 -9 -34 2 -41 13 -13 20 23 6 35 3 40
-11z m-302 -174 c12 -32 20 -58 18 -58 -19 0 -49 49 -64 107 -10 37 -21 77
-25 88 -11 37 48 -79 71 -137z m-970 96 c-3 -9 -6 -40 -6 -70 0 -55 -11 -69
-29 -35 -12 22 13 121 30 121 6 0 8 -7 5 -16z m1231 -16 c-3 -8 -6 -5 -6 6 -1
11 2 17 5 13 3 -3 4 -12 1 -19z m-1010 -60 c-3 -8 -6 -5 -6 6 -1 11 2 17 5 13
3 -3 4 -12 1 -19z m-76 -47 c0 -9 4 -40 8 -68 10 -71 -1 -67 -17 5 -7 31 -16
65 -18 74 -4 13 -1 16 10 12 9 -3 16 -14 17 -23z m-57 -6 c-4 -8 -8 -15 -10
-15 -2 0 -4 7 -4 15 0 8 4 15 10 15 5 0 7 -7 4 -15z m19 -57 c8 -55 -8 -54
-19 0 -4 19 -2 32 4 32 5 0 12 -15 15 -32z m60 -102 c21 4 21 4 2 -4 -11 -5
-21 -14 -21 -21 -1 -6 -2 -21 -3 -33 -1 -18 -3 -20 -10 -9 -8 12 -12 13 -25 1
-25 -20 -30 -4 -7 21 12 13 21 30 21 39 0 22 14 36 18 17 2 -9 11 -13 25 -11z
m1114 -53 c-3 -10 -5 -4 -5 12 0 17 2 24 5 18 2 -7 2 -21 0 -30z m-1074 -43
c-6 -6 -33 30 -33 44 0 6 9 0 20 -14 10 -14 16 -27 13 -30z m-62 -37 c-9 -17
-10 -17 -16 -1 -4 9 -1 24 7 32 11 12 14 12 16 0 2 -7 -1 -21 -7 -31z m39 -79
c0 -15 -16 -19 -23 -6 -2 4 -7 21 -11 37 l-6 30 20 -24 c11 -13 20 -29 20 -37z
m5 -146 c4 -13 9 -45 10 -73 l3 -50 -9 40 c-14 63 -15 64 -22 71 -10 10 -9 34
2 34 5 0 12 -10 16 -22z m1182 -110 c-3 -8 -6 -5 -6 6 -1 11 2 17 5 13 3 -3 4
-12 1 -19z m37 -147 c-5 -13 -8 -11 -14 9 -5 14 -8 34 -9 45 -1 15 3 13 14 -9
9 -16 13 -37 9 -45z m513 -28 c12 -5 12 -7 1 -14 -24 -15 -28 -10 -27 34 2 30
3 34 6 14 3 -16 11 -31 20 -34z m-20 -65 c-3 -8 -6 -5 -6 6 -1 11 2 17 5 13 3
-3 4 -12 1 -19z m-1897 -68 c0 -5 -5 -10 -11 -10 -5 0 -7 5 -4 10 3 6 8 10 11
10 2 0 4 -4 4 -10z m2295 -40 c3 -5 -1 -10 -10 -10 -9 0 -13 5 -10 10 3 6 8
10 10 10 2 0 7 -4 10 -10z m-2278 -122 c-3 -8 -6 -5 -6 6 -1 11 2 17 5 13 3
-3 4 -12 1 -19z m2198 -18 c-3 -5 -10 -10 -16 -10 -5 0 -9 5 -9 10 0 6 7 10
16 10 8 0 12 -4 9 -10z m-100 -20 c-3 -5 -10 -10 -16 -10 -5 0 -9 5 -9 10 0 6
7 10 16 10 8 0 12 -4 9 -10z m-2115 -10 c0 -5 -2 -10 -4 -10 -3 0 -8 5 -11 10
-3 6 -1 10 4 10 6 0 11 -4 11 -10z m2165 -40 c3 -5 1 -10 -4 -10 -6 0 -11 5
-11 10 0 6 2 10 4 10 3 0 8 -4 11 -10z m145 -11 c0 -4 -7 -6 -15 -3 -8 4 -15
10 -15 15 0 4 7 6 15 3 8 -4 15 -10 15 -15z m-47 -26 c-5 -12 -2 -15 10 -10
11 4 17 1 17 -8 0 -9 -6 -12 -15 -8 -9 3 -23 -1 -33 -9 -15 -13 -19 -13 -36 5
-19 20 -19 20 2 15 13 -4 27 1 38 13 21 23 25 24 17 2z m-158 -73 c3 -5 -1
-10 -10 -10 -9 0 -13 5 -10 10 3 6 8 10 10 10 2 0 7 -4 10 -10z m65 -56 c0
-18 -30 -26 -36 -9 -8 19 18 47 28 31 4 -6 8 -16 8 -22z"/>
<path d="M4482 5745 c-14 -30 -16 -69 -3 -61 5 3 11 16 14 28 2 13 8 31 12 41
11 27 -11 20 -23 -8z"/>
<path d="M5091 5761 c69 -3 161 -3 205 0 47 3 -4 6 -126 6 -175 -1 -187 -1
-79 -6z"/>
<path d="M830 5700 c0 -5 9 -10 19 -10 11 0 23 5 26 10 4 6 -5 10 -19 10 -14
0 -26 -4 -26 -10z"/>
<path d="M881 5674 c0 -11 3 -14 6 -6 3 7 2 16 -1 19 -3 4 -6 -2 -5 -13z"/>
<path d="M946 5681 c-8 -13 21 -34 39 -27 25 9 18 36 -9 36 -14 0 -27 -4 -30
-9z"/>
<path d="M827 5648 c-21 -36 -22 -64 -3 -75 20 -12 56 -75 56 -98 0 -12 -5
-26 -12 -33 -13 -13 -10 -14 36 -16 16 -1 31 -7 34 -14 6 -20 32 -13 32 9 0
13 -8 23 -21 26 -15 4 -19 11 -15 27 3 11 -2 28 -11 38 -9 10 -13 21 -9 25 4
4 11 1 16 -7 7 -11 9 -4 6 20 -3 19 -5 42 -5 51 -1 19 -48 32 -55 15 -2 -6 -7
4 -11 22 -10 44 -17 46 -38 10z"/>
<path d="M1371 5644 c0 -11 3 -14 6 -6 3 7 2 16 -1 19 -3 4 -6 -2 -5 -13z"/>
<path d="M2150 5620 c0 -19 3 -21 12 -12 9 9 9 15 0 24 -9 9 -12 7 -12 -12z"/>
<path d="M2154 5582 c-7 -4 -14 -22 -15 -40 -3 -27 2 -37 31 -62 19 -17 29
-30 23 -30 -20 0 -15 -59 6 -87 11 -13 17 -31 14 -40 -4 -9 1 -21 9 -27 14
-10 35 -64 37 -96 1 -8 3 -33 5 -55 2 -22 0 -47 -5 -56 -4 -9 -6 -19 -3 -22 9
-9 34 4 34 17 0 7 11 22 25 34 26 23 31 48 26 132 -2 26 -10 49 -18 56 -9 6
-13 17 -10 25 4 10 6 9 6 -4 2 -30 17 -11 16 20 0 15 -3 26 -6 23 -13 -11 -39
24 -39 51 0 18 -6 30 -19 34 -10 3 -21 14 -24 25 -4 16 -11 19 -36 14 -20 -4
-31 -2 -31 5 0 6 9 11 20 11 11 0 20 6 20 14 0 16 -27 29 -42 19 -6 -3 -9 -2
-6 3 9 15 -6 44 -18 36z m16 -62 c0 -5 -5 -10 -11 -10 -5 0 -7 5 -4 10 3 6 8
10 11 10 2 0 4 -4 4 -10z"/>
<path d="M4455 5468 c10 -51 28 -98 37 -98 4 0 8 -7 8 -15 0 -12 3 -12 20 2
20 18 20 18 -1 25 -11 4 -18 12 -14 17 3 6 12 8 20 4 10 -3 15 1 15 15 0 11
-7 22 -15 26 -8 3 -15 15 -15 27 0 16 -5 20 -20 16 -11 -3 -20 -1 -20 4 0 5
-5 9 -11 9 -7 0 -8 -12 -4 -32z"/>
<path d="M835 5450 c-3 -5 -1 -10 4 -10 6 0 11 5 11 10 0 6 -2 10 -4 10 -3 0
-8 -4 -11 -10z"/>
<path d="M910 5376 c0 -8 4 -17 9 -21 5 -3 12 -19 16 -35 7 -30 25 -42 25 -17
0 18 -28 75 -41 82 -5 4 -9 -1 -9 -9z"/>
<path d="M990 5360 c0 -18 4 -29 10 -25 6 3 10 15 10 25 0 10 -4 22 -10 25 -6
4 -10 -7 -10 -25z"/>
<path d="M895 5301 c-3 -5 -1 -12 5 -16 5 -3 10 1 10 9 0 18 -6 21 -15 7z"/>
<path d="M1012 5273 c6 -8 15 -12 20 -11 15 5 5 22 -14 23 -14 1 -15 -1 -6
-12z"/>
<path d="M3250 5245 c0 -11 -5 -15 -15 -11 -11 4 -15 -2 -16 -22 0 -15 -3 -21
-6 -14 -6 16 -33 -3 -33 -24 0 -8 -7 -14 -15 -14 -8 0 -22 -11 -30 -24 -15
-23 -15 -27 0 -49 14 -22 14 -27 -2 -56 -10 -17 -22 -31 -26 -31 -5 0 -6 -4
-3 -8 3 -5 -10 -24 -29 -42 -23 -22 -35 -43 -35 -61 0 -14 -7 -32 -15 -39 -9
-7 -14 -19 -11 -27 3 -8 -5 -26 -19 -41 -13 -14 -27 -39 -30 -54 -4 -15 -10
-28 -13 -28 -4 0 -12 -11 -19 -25 -6 -14 -7 -25 -2 -25 5 0 -3 -12 -18 -28
-15 -15 -36 -43 -46 -62 -10 -19 -29 -54 -42 -77 -19 -34 -21 -43 -9 -47 16
-6 19 -42 5 -51 -5 -3 -12 3 -14 12 -2 10 -3 6 -1 -9 2 -20 -2 -31 -17 -38
-11 -6 -33 -24 -48 -41 -16 -16 -33 -29 -40 -29 -6 0 -11 -4 -11 -10 0 -5 -7
-10 -15 -10 -9 0 -18 -7 -22 -16 -3 -8 -12 -13 -19 -10 -10 4 -11 -1 -3 -21 5
-14 7 -28 4 -31 -3 -3 -5 1 -5 9 -1 10 -5 8 -15 -5 -8 -11 -13 -28 -10 -37 4
-13 -1 -19 -17 -22 l-23 -4 25 -10 c22 -10 23 -12 7 -18 -10 -4 -28 -3 -40 4
-12 6 -34 12 -49 13 -16 1 -32 11 -39 25 -7 13 -21 23 -31 23 -17 0 -18 -6
-12 -52 4 -29 7 -54 8 -54 16 -17 118 -94 124 -94 5 0 17 -9 26 -19 13 -14 14
-21 5 -26 -7 -5 -16 -1 -21 9 -5 9 -13 14 -18 11 -12 -7 34 -55 52 -55 21 0
61 55 96 131 30 65 100 214 153 325 16 34 29 65 29 69 0 12 299 605 311 615 9
8 49 90 49 101 0 5 11 27 25 48 24 38 48 113 27 82 -9 -12 -13 -12 -26 -2 -14
11 -16 11 -16 -4z m-433 -917 c-3 -8 -6 -5 -6 6 -1 11 2 17 5 13 3 -3 4 -12 1
-19z"/>
<path d="M5221 5064 c0 -11 3 -14 6 -6 3 7 2 16 -1 19 -3 4 -6 -2 -5 -13z"/>
<path d="M5220 5005 c0 -11 5 -27 10 -35 8 -12 10 -12 10 5 0 11 -5 27 -10 35
-8 12 -10 12 -10 -5z"/>
<path d="M4560 4949 c0 -5 5 -7 10 -4 6 3 10 8 10 11 0 2 -4 4 -10 4 -5 0 -10
-5 -10 -11z"/>
<path d="M5228 4944 c-5 -4 -8 -25 -8 -46 0 -49 -15 -78 -40 -78 -25 0 -25 -3
2 -57 16 -32 27 -43 40 -40 9 3 18 2 20 -3 2 -4 15 -10 30 -13 24 -6 28 -3 43
38 23 59 15 86 -34 109 -36 17 -40 23 -43 58 -2 22 -6 36 -10 32z"/>
<path d="M4512 4908 c5 -15 58 -24 58 -10 0 11 -24 22 -47 22 -8 0 -13 -6 -11
-12z"/>
<path d="M4550 4860 c0 -19 3 -21 12 -12 9 9 9 15 0 24 -9 9 -12 7 -12 -12z"/>
<path d="M4575 4821 c-6 -11 9 -23 19 -14 9 9 7 23 -3 23 -6 0 -12 -4 -16 -9z"/>
<path d="M4729 4754 c-5 -15 -7 -29 -4 -32 3 -3 5 0 5 6 0 7 7 12 15 12 8 0
15 9 15 20 0 29 -19 25 -31 -6z"/>
<path d="M4773 4733 c-24 -21 -40 -63 -24 -63 6 0 11 -15 11 -34 0 -21 6 -36
15 -40 21 -8 20 42 -1 65 -19 21 -11 54 11 45 8 -3 15 -1 15 3 0 5 3 16 6 25
8 21 -8 20 -33 -1z"/>
<path d="M4255 4720 c-14 -16 -16 -25 -7 -47 6 -16 13 -41 17 -57 10 -45 19
-21 17 46 -1 39 3 65 11 70 8 5 7 8 -4 8 -9 0 -24 -9 -34 -20z"/>
<path d="M4717 4629 c4 -16 8 -17 14 -7 13 19 11 28 -5 28 -9 0 -12 -7 -9 -21z"/>
<path d="M4745 4579 c-10 -15 3 -25 16 -12 7 7 7 13 1 17 -6 3 -14 1 -17 -5z"/>
<path d="M4764 4539 c-3 -6 -2 -15 4 -21 13 -13 32 -2 32 18 0 16 -26 19 -36
3z"/>
<path d="M70 4529 c0 -5 5 -9 10 -9 6 0 10 -9 10 -19 0 -11 5 -23 10 -26 14
-9 25 25 14 43 -11 17 -44 25 -44 11z"/>
<path d="M170 4530 c0 -5 -7 -7 -15 -4 -9 4 -15 0 -15 -9 0 -25 20 -31 35 -11
17 23 19 34 5 34 -5 0 -10 -4 -10 -10z"/>
<path d="M0 4008 c1 -257 5 -468 10 -468 4 0 11 7 14 16 5 12 10 14 20 5 17
-15 27 -3 20 24 -3 13 -1 26 5 29 15 9 14 66 0 66 -8 0 -7 6 2 16 7 9 12 29
11 45 -3 24 0 28 14 22 12 -4 15 -3 10 5 -4 7 -3 19 2 28 5 9 6 32 2 50 -8 34
3 56 14 32 4 -7 4 -2 2 11 -3 13 2 30 10 38 8 8 14 29 14 46 0 18 9 79 19 137
51 276 55 311 41 320 -7 4 -46 6 -87 3 -51 -4 -73 -2 -73 6 0 6 7 11 15 11 33
0 12 18 -25 22 l-41 4 1 -468z m36 -195 c-10 -10 -19 5 -10 18 6 11 8 11 12 0
2 -7 1 -15 -2 -18z m14 -173 c0 -5 -2 -10 -4 -10 -3 0 -8 5 -11 10 -3 6 -1 10
4 10 6 0 11 -4 11 -10z"/>
<path d="M5283 4411 c0 -11 5 -17 9 -15 11 7 10 34 -1 34 -6 0 -9 -9 -8 -19z"/>
<path d="M5312 4345 c0 -45 10 -59 22 -29 4 9 2 22 -4 29 -8 9 -8 15 0 20 11
7 4 25 -10 25 -4 0 -8 -20 -8 -45z"/>
<path d="M5333 4261 c-3 -12 -11 -17 -19 -14 -9 3 -14 -2 -14 -16 0 -25 1 -25
31 -8 13 6 25 22 27 35 4 27 -18 30 -25 3z"/>
<path d="M5440 4210 c0 -5 7 -10 15 -10 8 0 15 5 15 10 0 6 -7 10 -15 10 -8 0
-15 -4 -15 -10z"/>
<path d="M5430 4170 c0 -5 4 -10 9 -10 6 0 13 5 16 10 3 6 -1 10 -9 10 -9 0
-16 -4 -16 -10z"/>
<path d="M5355 4156 c24 -18 38 -20 33 -4 -2 6 -15 13 -28 15 -24 3 -24 3 -5
-11z"/>
<path d="M5388 4083 c7 -3 16 -2 19 1 4 3 -2 6 -13 5 -11 0 -14 -3 -6 -6z"/>
<path d="M5448 4073 c7 -3 16 -2 19 1 4 3 -2 6 -13 5 -11 0 -14 -3 -6 -6z"/>
<path d="M1943 3843 c-19 -7 -16 -19 10 -30 12 -6 53 -36 90 -67 72 -59 82
-64 91 -43 3 8 9 7 20 -7 8 -10 21 -16 28 -14 7 3 19 -1 26 -8 11 -12 6 -14
-28 -14 -27 0 -39 -4 -35 -11 4 -6 9 -8 12 -5 3 3 18 -5 34 -18 15 -13 63 -38
106 -56 43 -18 82 -36 87 -41 6 -5 20 -9 33 -9 19 0 28 11 48 58 14 31 34 73
45 92 39 65 54 100 47 106 -4 4 -60 9 -124 11 -108 4 -238 19 -353 43 -67 13
-123 19 -137 13z m355 -218 c-8 -8 -58 5 -58 15 0 15 35 17 49 4 8 -8 12 -16
9 -19z m37 -5 c3 -5 1 -10 -4 -10 -6 0 -11 5 -11 10 0 6 2 10 4 10 3 0 8 -4
11 -10z"/>
<path d="M2660 3719 c0 -11 4 -18 10 -14 5 3 7 12 3 20 -7 21 -13 19 -13 -6z"/>
<path d="M2797 3685 c-4 -8 -2 -17 3 -20 6 -4 10 3 10 14 0 25 -6 27 -13 6z"/>
<path d="M3298 3683 c7 -3 16 -2 19 1 4 3 -2 6 -13 5 -11 0 -14 -3 -6 -6z"/>
<path d="M3148 3673 c7 -3 16 -2 19 1 4 3 -2 6 -13 5 -11 0 -14 -3 -6 -6z"/>
<path d="M3190 3651 c0 -5 5 -13 10 -16 6 -3 10 -2 10 4 0 5 -4 13 -10 16 -5
3 -10 2 -10 -4z"/>
<path d="M2358 3464 c-5 -4 -8 -16 -8 -28 0 -14 3 -17 11 -9 6 6 9 19 7 28 -1
9 -6 13 -10 9z"/>
<path d="M1976 3441 c-3 -5 1 -11 9 -15 8 -3 15 -1 15 4 0 13 -18 22 -24 11z"/>
<path d="M3615 3303 c-16 -2 -41 -8 -55 -13 -14 -5 -38 -14 -54 -20 -56 -21
-17 -21 84 0 56 11 110 18 120 15 10 -3 30 -3 45 1 67 17 -42 30 -140 17z"/>
<path d="M1370 3200 c-12 -8 -9 -10 13 -10 15 0 27 5 27 10 0 13 -20 13 -40 0z"/>
<path d="M4352 3197 c-9 -11 -10 -17 -2 -22 15 -9 23 -1 18 21 -3 15 -4 16
-16 1z"/>
<path d="M4223 3033 c-17 -6 -16 -23 1 -23 8 0 16 7 20 15 6 15 1 17 -21 8z"/>
<path d="M1305 2900 c-9 -15 -14 -45 -25 -160 -15 -161 -15 -168 17 -176 52
-14 58 0 58 147 0 74 4 144 8 157 6 17 5 22 -7 22 -9 0 -16 5 -16 10 0 13 -27
13 -35 0z"/>
<path d="M2100 2804 c-60 -34 -90 -63 -90 -87 0 -11 -7 -28 -15 -38 -22 -23
-26 -124 -5 -124 8 0 16 -8 18 -19 3 -11 0 -16 -7 -12 -13 9 -14 -4 -1 -24 6
-10 5 -22 -5 -36 -8 -12 -11 -25 -7 -29 4 -4 8 -29 8 -56 1 -27 4 -52 8 -56 3
-3 6 -1 6 6 0 7 4 10 9 7 5 -3 7 -15 4 -25 -3 -10 0 -22 6 -25 6 -4 11 -1 11
6 0 8 9 21 20 31 11 9 21 25 21 34 3 37 6 61 12 86 7 26 -17 47 -27 24 -3 -7
-3 0 0 15 5 20 1 28 -15 33 -12 3 -21 15 -21 26 0 10 -4 19 -10 19 -5 0 -10 8
-10 18 0 14 -2 15 -10 2 -8 -13 -10 -13 -10 2 0 10 15 21 43 30 l42 13 3 65
c3 84 5 88 47 106 19 8 35 19 35 24 0 15 -11 12 -60 -16z"/>
<path d="M1891 2509 c-24 -39 -27 -59 -8 -59 14 0 43 77 33 87 -3 3 -14 -10
-25 -28z"/>
<path d="M3891 2354 c0 -11 3 -14 6 -6 3 7 2 16 -1 19 -3 4 -6 -2 -5 -13z"/>
<path d="M1245 2283 c-4 -26 -19 -77 -33 -113 -24 -61 -26 -76 -26 -237 -1
-95 -4 -173 -7 -173 -4 0 -12 6 -18 14 -23 27 -113 37 -331 36 -118 -1 -228
-3 -245 -5 -16 -2 -66 -6 -110 -9 -44 -3 -136 -10 -205 -16 -69 -5 -129 -10
-133 -10 -5 0 -5 -4 -2 -10 8 -13 -1 -13 -27 1 -13 7 -24 7 -30 1 -6 -6 6 -15
32 -26 49 -19 54 -20 47 -3 -5 14 89 18 110 4 6 -4 26 -7 45 -7 18 0 57 -3 86
-6 44 -5 51 -8 41 -20 -8 -10 -23 -12 -50 -8 -26 4 -39 3 -39 -5 0 -6 -7 -11
-15 -11 -8 0 -15 4 -15 9 0 16 -53 23 -65 8 -10 -14 -52 -9 -78 10 -7 5 -37
10 -67 12 -30 2 -58 8 -62 14 -4 7 -11 7 -22 -2 -13 -11 -16 -11 -16 3 0 9 5
16 11 16 5 0 7 5 4 10 -23 37 -26 -19 -24 -470 1 -350 4 -480 13 -484 7 -3 7
-5 -1 -5 -17 -1 -16 -30 1 -37 8 -3 12 -13 9 -25 -3 -10 0 -19 6 -19 5 0 8 6
5 14 -3 7 2 16 10 19 18 7 31 -8 16 -18 -18 -11 -10 -25 15 -25 18 0 25 5 25
20 0 11 5 20 10 20 6 0 10 -4 10 -10 0 -26 19 -6 28 30 8 32 7 40 -4 40 -17 0
-18 11 -1 43 10 20 17 23 30 15 12 -6 15 -14 9 -26 -9 -18 -8 -109 1 -119 4
-3 14 -2 24 3 21 9 30 11 61 13 16 1 22 7 22 25 0 13 7 30 16 37 15 12 16 9 9
-31 -9 -54 -12 -60 -32 -60 -10 0 -13 -6 -9 -16 3 -9 6 -17 6 -19 0 -2 9 -1
20 2 11 3 20 1 20 -5 0 -6 9 -8 20 -5 24 6 26 -3 5 -24 -8 -8 -13 -19 -10 -24
9 -14 25 -11 25 6 0 17 16 20 25 5 10 -16 92 -12 98 4 4 10 0 12 -14 9 -21 -6
-25 7 -7 25 9 9 16 8 31 -6 18 -16 20 -16 33 2 15 21 16 21 32 -9 6 -11 12
-14 12 -7 0 14 30 17 30 2 0 -5 9 -10 21 -10 13 0 18 4 13 12 -4 7 -3 8 5 4 6
-4 8 -12 5 -18 -5 -8 -1 -9 10 -5 10 4 20 7 22 7 2 0 4 7 4 15 0 8 5 15 10 15
17 0 11 -38 -7 -49 -14 -8 -15 -12 -4 -25 19 -23 39 -20 43 6 2 18 10 23 37
25 l34 3 -7 -43 c-4 -23 -11 -64 -16 -92 -6 -27 -13 -69 -16 -92 -6 -41 -5
-43 19 -43 34 0 62 41 71 103 7 47 8 48 27 31 10 -9 19 -24 19 -32 0 -8 18
-32 40 -52 31 -29 53 -39 103 -48 36 -7 84 -12 109 -12 31 0 54 -7 78 -25 19
-14 51 -30 71 -35 68 -19 127 -49 132 -70 3 -11 3 -38 0 -60 -5 -33 -2 -43 18
-60 13 -10 29 -19 35 -20 6 0 19 -9 30 -21 17 -19 19 -19 31 -3 8 11 18 14 30
10 17 -7 17 -8 1 -20 -10 -7 -18 -22 -18 -32 1 -18 1 -18 11 -1 18 31 51 37
72 13 l18 -21 -13 22 c-16 28 -3 41 23 25 20 -13 39 -9 39 9 0 5 -7 9 -15 9
-8 0 -15 4 -15 9 0 5 9 7 20 4 17 -4 27 7 18 20 -7 10 25 35 38 30 9 -3 14 1
14 12 0 9 5 13 10 10 16 -10 12 1 -6 15 -12 11 -15 11 -12 0 2 -7 -2 -14 -7
-16 -6 -3 -11 16 -12 46 l-1 50 33 0 c25 0 40 8 58 30 14 17 30 30 36 30 11 0
21 88 24 207 3 86 17 130 17 50 0 -72 -30 -530 -36 -550 -5 -16 4 -17 138 -15
l143 3 3 30 c1 17 9 86 17 155 24 201 37 382 28 391 -7 6 -168 32 -263 42
l-35 3 3 165 c5 332 2 496 -11 515 -3 6 -6 27 -5 45 1 35 -11 118 -19 132 -3
4 -12 2 -20 -5 -14 -11 -15 -9 -8 20 5 23 2 40 -9 58 -16 23 -15 26 4 46 23
25 26 44 6 51 -21 8 -27 59 -10 85 11 17 12 27 5 36 -6 7 -8 16 -4 19 20 21 7
257 -25 447 l-7 45 -13 -30 c-13 -33 -55 -184 -77 -280 -20 -84 -84 -334 -95
-370 -5 -16 -11 -48 -14 -70 -3 -22 -16 -79 -30 -127 -13 -48 -28 -113 -31
-145 -6 -46 -26 -110 -41 -131 -7 -10 -51 48 -78 102 l-31 61 2 220 c6 538 3
625 -23 783 -5 31 -6 32 -58 32 l-54 0 -7 -47z m-678 -519 c-3 -3 -12 -4 -19
-1 -8 3 -5 6 6 6 11 1 17 -2 13 -5z m-264 -11 c-7 -2 -19 -2 -25 0 -7 3 -2 5
12 5 14 0 19 -2 13 -5z m190 -33 c3 -11 -2 -25 -11 -32 -13 -11 -15 -10 -9 5
3 9 2 17 -4 17 -7 0 8 27 17 30 1 0 4 -9 7 -20z m77 -19 c0 -14 -18 -23 -30
-16 -6 4 -8 11 -5 16 8 12 35 12 35 0z m-465 -671 c-11 -5 -27 -9 -35 -9 -13
-1 -13 0 0 9 8 5 24 9 35 9 l20 0 -20 -9z m75 -30 c0 -5 -2 -10 -4 -10 -3 0
-8 5 -11 10 -3 6 -1 10 4 10 6 0 11 -4 11 -10z m-57 -27 c11 -10 -13 -32 -29
-26 -20 8 -17 33 4 33 10 0 22 -3 25 -7z m-68 -83 c3 -5 1 -10 -4 -10 -6 0
-11 5 -11 10 0 6 2 10 4 10 3 0 8 -4 11 -10z m58 -4 c4 -10 1 -13 -8 -9 -8 3
-12 9 -9 14 7 12 11 11 17 -5z m207 -26 c0 -5 -8 -10 -17 -10 -15 0 -16 2 -3
10 19 12 20 12 20 0z m-216 -65 c-4 -8 -11 -15 -18 -15 -6 0 -4 -5 4 -10 17
-11 10 -13 -14 -4 -28 11 -14 30 31 43 1 1 0 -6 -3 -14z m364 -67 c16 -16 15
-28 0 -28 -22 0 -41 17 -34 29 9 14 19 14 34 -1z m-128 -22 c0 -3 -4 -8 -10
-11 -5 -3 -10 -1 -10 4 0 6 5 11 10 11 6 0 10 -2 10 -4z m280 -10 c0 -3 -4 -8
-10 -11 -5 -3 -10 -1 -10 4 0 6 5 11 10 11 6 0 10 -2 10 -4z m775 -206 c3 -5
1 -10 -4 -10 -6 0 -11 5 -11 10 0 6 2 10 4 10 3 0 8 -4 11 -10z m325 -288 c0
-13 -12 -22 -22 -16 -10 6 -1 24 13 24 5 0 9 -4 9 -8z m-95 -102 c3 -5 -1 -10
-9 -10 -9 0 -16 5 -16 10 0 6 4 10 9 10 6 0 13 -4 16 -10z"/>
<path d="M2050 2274 c0 -8 5 -12 10 -9 6 3 10 10 10 16 0 5 -4 9 -10 9 -5 0
-10 -7 -10 -16z"/>
<path d="M3365 2030 c3 -5 11 -10 16 -10 6 0 7 5 4 10 -3 6 -11 10 -16 10 -6
0 -7 -4 -4 -10z"/>
<path d="M0 2010 c0 -5 5 -10 10 -10 6 0 10 5 10 10 0 6 -4 10 -10 10 -5 0
-10 -4 -10 -10z"/>
<path d="M0 1900 c0 -5 5 -10 10 -10 6 0 10 5 10 10 0 6 -4 10 -10 10 -5 0
-10 -4 -10 -10z"/>
<path d="M5425 1320 c3 -5 8 -10 11 -10 2 0 4 5 4 10 0 6 -5 10 -11 10 -5 0
-7 -4 -4 -10z"/>
<path d="M4540 1264 c0 -3 6 -12 14 -20 11 -10 17 -11 22 -3 3 6 0 15 -7 20
-16 10 -29 12 -29 3z"/>
<path d="M4690 1229 c0 -5 5 -7 10 -4 6 3 10 8 10 11 0 2 -4 4 -10 4 -5 0 -10
-5 -10 -11z"/>
<path d="M4588 1164 c-14 -21 -20 -84 -9 -84 6 0 11 -17 11 -39 0 -22 5 -43
10 -46 7 -4 9 2 4 19 -3 15 -1 32 5 40 8 10 8 16 -4 26 -18 15 -20 37 -3 42 9
3 10 11 2 28 -6 13 -13 20 -16 14z"/>
<path d="M4712 1028 c-14 -14 -16 -28 -3 -28 5 0 11 9 14 20 6 23 5 24 -11 8z"/>
<path d="M4681 864 c0 -11 3 -14 6 -6 3 7 2 16 -1 19 -3 4 -6 -2 -5 -13z"/>
<path d="M4690 799 c0 -5 5 -7 10 -4 6 3 10 1 10 -5 0 -6 5 -8 10 -5 6 4 8 11
5 16 -8 12 -35 11 -35 -2z"/>
<path d="M45 681 c-6 -11 9 -23 19 -14 9 9 7 23 -3 23 -6 0 -12 -4 -16 -9z"/>
<path d="M80 680 c0 -5 5 -10 11 -10 5 0 7 5 4 10 -3 6 -8 10 -11 10 -2 0 -4
-4 -4 -10z"/>
<path d="M4702 670 c0 -14 2 -19 5 -12 2 6 2 18 0 25 -3 6 -5 1 -5 -13z"/>
<path d="M175 640 c3 -5 12 -10 20 -10 8 0 17 5 20 10 4 6 -5 10 -20 10 -15 0
-24 -4 -20 -10z"/>
<path d="M4722 633 c2 -9 9 -18 16 -21 18 -6 15 25 -4 32 -11 4 -14 1 -12 -11z"/>
<path d="M630 600 c-11 -7 -12 -12 -3 -21 8 -8 9 -18 2 -31 -12 -23 -8 -23 21
2 13 11 17 20 10 20 -7 0 -10 8 -7 20 6 22 0 25 -23 10z"/>
<path d="M697 503 c-12 -12 -7 -22 8 -17 8 4 15 10 15 15 0 11 -14 12 -23 2z"/>
<path d="M4628 269 c-10 -10 -27 -19 -38 -19 -10 0 -75 -22 -143 -50 -68 -28
-130 -50 -138 -50 -8 0 -19 -4 -24 -9 -6 -6 -26 -13 -45 -16 -19 -3 -51 -10
-70 -15 -70 -18 -127 -29 -220 -45 -52 -9 -113 -21 -135 -26 -22 -5 -85 -13
-139 -19 -55 -6 -102 -13 -105 -15 -2 -3 219 -5 492 -5 480 0 497 1 497 19 0
10 6 24 14 30 11 10 17 8 25 -6 9 -15 12 -16 20 -4 6 9 6 22 0 32 -6 12 -5 20
1 24 6 4 9 25 6 48 -4 34 0 45 20 65 14 15 24 36 24 53 0 33 -17 36 -42 8z"/>
<path d="M3168 73 c7 -3 16 -2 19 1 4 3 -2 6 -13 5 -11 0 -14 -3 -6 -6z"/>
</g>
</svg>
