<?xml version="1.0" standalone="no"?>
<!DOCTYPE svg PUBLIC "-//W3C//DTD SVG 20010904//EN"
 "http://www.w3.org/TR/2001/REC-SVG-20010904/DTD/svg10.dtd">
<svg version="1.0" xmlns="http://www.w3.org/2000/svg"
 width="200.000000pt" height="200.000000pt" viewBox="0 0 200.000000 200.000000"
 preserveAspectRatio="xMidYMid meet">

<g transform="translate(0.000000,200.000000) scale(0.100000,-0.100000)"
fill="#000000" stroke="none">
<path d="M0 1196 l0 -804 21 5 c18 5 20 2 17 -37 -2 -26 -9 -45 -17 -48 -8 -3
-11 0 -8 5 3 5 2 15 -4 23 -6 11 -9 6 -9 -18 0 -29 2 -32 24 -26 19 4 24 1 28
-20 4 -22 2 -26 -18 -26 -12 0 -25 6 -27 13 -3 6 -6 -8 -6 -32 -1 -41 0 -43
23 -37 15 4 27 1 30 -7 3 -6 4 0 2 15 -2 17 2 28 8 28 7 0 11 -12 10 -27 -2
-42 -3 -47 -10 -40 -4 3 -15 2 -25 -4 -13 -6 -19 -6 -19 1 0 5 -4 10 -9 10 -4
0 -9 -38 -10 -85 l-2 -85 834 0 c728 0 836 2 841 15 3 8 13 15 23 15 14 0 15
2 5 9 -11 7 -11 9 2 14 12 5 16 0 16 -24 0 -18 4 -28 10 -24 6 4 8 15 5 25
-11 34 15 32 30 -2 12 -27 14 -29 15 -10 0 26 17 30 23 5 4 -15 5 -16 6 -2 1
20 30 29 89 29 39 0 42 -2 42 -27 0 -20 3 -24 9 -14 5 7 6 22 3 34 -3 14 -1
18 6 13 7 -4 12 -16 12 -27 0 -12 4 -17 11 -14 6 4 8 13 5 21 -3 8 -1 14 4 14
15 0 12 107 -2 113 -10 4 -10 6 0 6 6 1 12 9 12 20 0 21 -26 31 -82 31 -28 0
-38 5 -43 20 -3 11 -15 20 -25 20 -31 0 -50 11 -50 30 0 28 -11 51 -21 44 -5
-3 -12 2 -15 10 -5 13 -8 13 -20 1 -18 -18 -18 -34 2 -56 15 -16 13 -18 -22
-28 -24 -7 -43 -7 -55 0 -26 14 -24 39 4 39 12 0 29 5 37 11 12 8 12 10 -5 8
-51 -4 -63 1 -74 33 -6 17 -9 33 -7 36 8 7 27 -9 21 -18 -3 -4 2 -13 10 -20
13 -11 15 -6 15 33 0 54 15 69 60 60 24 -4 31 -3 26 6 -11 18 22 25 50 11 18
-10 24 -22 26 -49 l1 -36 4 33 c3 18 -1 40 -8 48 -9 11 -8 14 4 14 17 0 27
-21 27 -58 0 -43 11 -72 27 -72 12 0 13 3 4 14 -6 8 -14 37 -18 65 -4 39 -3
51 8 52 8 1 26 3 42 5 15 1 27 -2 27 -7 0 -18 45 -5 48 14 3 15 -5 17 -60 16
-35 0 -88 -4 -118 -9 -156 -26 -154 -26 -147 1 4 13 7 39 7 57 0 17 5 32 10
32 6 0 10 -8 8 -17 -2 -13 6 -19 35 -24 20 -3 37 -2 37 3 0 5 5 6 12 2 21 -13
70 -15 62 -3 -10 17 39 0 55 -20 12 -14 13 -14 8 0 -3 9 -1 22 4 30 8 12 10
12 19 -1 9 -13 11 -13 20 0 5 8 10 21 10 28 0 10 5 10 20 2 19 -10 20 -5 20
705 l0 715 -1000 0 -1000 0 0 -804z m1470 -337 c0 -5 4 -8 9 -5 5 3 12 -1 15
-10 10 -27 1 -26 -28 1 -19 18 -22 25 -12 25 9 0 16 -5 16 -11z m-1070 -9 c0
-5 -4 -10 -10 -10 -5 0 -10 5 -10 10 0 6 5 10 10 10 6 0 10 -4 10 -10z m1588
-27 c2 -8 -5 -13 -17 -13 -12 0 -21 6 -21 16 0 18 31 15 38 -3z m-1570 -33 c0
-8 4 -39 8 -69 5 -36 4 -52 -3 -48 -7 4 -9 -11 -6 -43 2 -26 -1 -51 -6 -54
-14 -9 -25 14 -13 26 7 7 8 18 3 27 -15 29 -22 99 -11 106 7 4 7 11 2 18 -7 9
-9 53 -3 75 2 9 28 -25 29 -38z m1099 -42 c-3 -7 -5 -2 -5 12 0 14 2 19 5 13
2 -7 2 -19 0 -25z m-1151 -65 c-11 -11 -17 4 -9 23 7 18 8 18 11 1 2 -10 1
-21 -2 -24z m1444 -13 c0 -5 -4 -10 -10 -10 -5 0 -10 5 -10 10 0 6 5 10 10 10
6 0 10 -4 10 -10z m-30 -18 c0 -15 -83 -43 -94 -32 -10 10 -5 12 54 29 19 5
36 10 38 10 1 1 2 -3 2 -7z m60 -12 c0 -5 -2 -10 -4 -10 -3 0 -8 5 -11 10 -3
6 -1 10 4 10 6 0 11 -4 11 -10z m-189 -22 c3 -30 -4 -53 -19 -65 -16 -12 -16
-13 1 -7 15 5 17 -1 17 -56 0 -44 -5 -66 -17 -78 -16 -16 -16 -16 -9 3 13 33
12 40 -5 38 -21 -4 -42 94 -22 101 15 6 18 36 3 36 -5 0 -10 -7 -10 -16 0 -8
-4 -12 -10 -9 -5 3 -10 17 -10 30 0 23 6 26 68 34 6 0 13 -5 13 -11z m261 -23
c4 -20 1 -25 -15 -25 -16 0 -18 3 -10 11 6 6 9 18 6 25 -3 8 -1 14 5 14 5 0
12 -11 14 -25z m-1543 -7 c-2 -13 0 -29 4 -35 9 -15 -2 -17 -22 -4 -9 6 -10
11 -2 15 6 4 9 12 6 17 -4 5 -3 14 0 19 10 17 17 11 14 -12z m1571 12 c0 -5
-4 -10 -10 -10 -5 0 -10 5 -10 10 0 6 5 10 10 10 6 0 10 -4 10 -10z m-1484
-48 c-2 -9 -7 -17 -13 -19 -5 -2 -8 10 -5 28 3 19 7 26 12 19 4 -7 7 -20 6
-28z m-123 13 c-3 -9 -8 -14 -10 -11 -3 3 -2 9 2 15 9 16 15 13 8 -4z m23 -51
c-3 -9 -6 -18 -6 -20 0 -2 -4 -4 -9 -4 -5 0 -7 9 -4 20 3 11 10 20 15 20 6 0
7 -7 4 -16z m106 -5 c-18 -12 -31 -23 -28 -26 2 -2 14 2 25 9 18 11 23 11 31
-2 15 -24 12 -63 -4 -57 -8 3 -17 -1 -20 -9 -5 -13 0 -14 23 -9 l29 6 -5 -48
c-3 -26 -11 -86 -17 -133 l-12 -85 -56 -3 -55 -3 13 98 c14 101 27 143 43 143
5 0 12 -8 14 -17 3 -11 5 -7 6 10 1 25 -2 27 -20 22 -20 -7 -21 -5 -15 26 4
19 7 43 7 55 0 13 9 24 27 31 44 18 49 14 14 -8z m-292 -40 c0 -11 -4 -17 -10
-14 -5 3 -10 13 -10 21 0 8 5 14 10 14 6 0 10 -9 10 -21z m210 -10 c0 -11 -5
-19 -11 -19 -6 0 -9 -9 -6 -20 3 -11 1 -20 -4 -20 -5 0 -9 7 -9 15 0 7 -7 18
-15 23 -23 12 -8 40 21 40 17 0 24 -6 24 -19z m-140 -19 c0 -5 -17 -12 -38
-16 -36 -6 -37 -8 -36 -42 0 -21 4 -49 9 -64 8 -32 3 -35 -20 -12 -9 9 -13 24
-10 35 4 11 -2 26 -15 39 l-21 21 28 -6 c27 -6 27 -6 9 9 -10 8 -23 13 -27 10
-5 -3 -9 0 -9 6 0 7 7 9 16 6 9 -4 23 -1 30 5 8 6 14 9 14 6 0 -3 52 6 68 12
1 1 2 -3 2 -9z m60 -31 c0 -9 -7 -19 -15 -23 -10 -4 -15 1 -15 15 0 13 4 18
13 13 9 -6 9 -5 0 8 -7 8 -10 18 -6 22 8 8 23 -14 23 -35z m-50 -28 c0 -7 -6
-11 -15 -8 -8 4 -17 2 -20 -4 -7 -11 -35 14 -35 32 0 9 3 9 14 0 11 -9 17 -9
28 2 14 16 28 5 28 -22z m-193 -23 c-3 -8 -6 -5 -6 6 -1 11 2 17 5 13 3 -3 4
-12 1 -19z m50 0 c-3 -8 -6 -5 -6 6 -1 11 2 17 5 13 3 -3 4 -12 1 -19z m143
-24 c0 -10 -6 -14 -15 -11 -8 4 -17 2 -20 -3 -4 -6 3 -10 15 -10 12 0 19 -4
16 -9 -4 -5 -1 -20 4 -33 10 -23 10 -23 6 -1 -2 13 0 26 5 29 6 3 7 14 4 25
-4 13 -1 21 11 26 10 4 19 2 22 -5 2 -7 11 -12 20 -12 10 0 13 -3 6 -8 -5 -4
-10 -17 -10 -29 0 -17 4 -20 18 -12 15 8 17 4 12 -48 -3 -32 -6 -64 -6 -70 -2
-19 -24 -22 -128 -19 -90 3 -95 4 -98 26 -6 41 7 68 39 79 17 6 35 9 39 6 4
-3 16 7 25 22 15 22 15 25 2 20 -15 -6 -31 28 -21 45 10 15 54 9 54 -8z m1527
-56 c-3 -7 -5 -2 -5 12 0 14 2 19 5 13 2 -7 2 -19 0 -25z m-1633 -12 c-10 -8
-21 -12 -24 -10 -5 6 21 24 34 24 6 0 1 -6 -10 -14z m1316 -37 c0 -11 -4 -17
-10 -14 -5 3 -10 13 -10 21 0 8 5 14 10 14 6 0 10 -9 10 -21z m241 -9 c5 0 9
-5 9 -11 0 -15 -43 -7 -48 10 -3 10 0 12 12 8 10 -4 22 -7 27 -7z m239 -30
c12 -8 9 -10 -12 -10 -16 0 -28 5 -28 10 0 13 20 13 40 0z m-1241 -57 l-1 -58
-13 50 c-11 38 -11 51 -2 57 7 4 13 8 15 8 1 0 2 -26 1 -57z m757 -52 c-6 -53
-15 -47 -14 9 1 32 4 46 10 37 4 -8 6 -29 4 -46z m-986 -26 c0 -16 -23 -22
-67 -17 -35 4 -45 28 -15 34 32 6 82 -4 82 -17z m-140 5 c0 -5 -22 -10 -50
-10 -27 0 -50 5 -50 10 0 6 23 10 50 10 28 0 50 -4 50 -10z"/>
<path d="M431 314 c0 -11 3 -14 6 -6 3 7 2 16 -1 19 -3 4 -6 -2 -5 -13z"/>
<path d="M440 271 c0 -11 5 -23 10 -26 6 -3 10 3 10 14 0 11 -4 23 -10 26 -5
3 -10 -3 -10 -14z"/>
<path d="M248 223 c7 -3 16 -2 19 1 4 3 -2 6 -13 5 -11 0 -14 -3 -6 -6z"/>
<path d="M1908 23 c7 -3 16 -2 19 1 4 3 -2 6 -13 5 -11 0 -14 -3 -6 -6z"/>
</g>
</svg>
